<svg
   xmlns:dc="http://purl.org/dc/elements/1.1/"
   xmlns:cc="http://creativecommons.org/ns#"
   xmlns:rdf="http://www.w3.org/1999/02/22-rdf-syntax-ns#"
   xmlns:svg="http://www.w3.org/2000/svg"
   xmlns="http://www.w3.org/2000/svg"
   viewBox="160 70 510 700"
   id="svg2"
   version="1.1">
  <defs
     id="defs66" />
  <g
     id="g8">
    <path
       id="path10"
       style="fill:#1b1918;fill-rule:evenodd"
       d="m 625.5418,250.4971 c 2e-4,0.216 1.1677,0.6399 3.43,-0.11 1.0554,-0.3977 2.3163,-1.582 2.2549,-3.3518 -0.007,-0.8536 -0.2168,-1.7968 -0.6519,-2.7756 -0.4878,-1.0405 -0.9467,-1.8479 -1.4947,-2.6396 -2.2138,-3.2183 -5.4536,-6.4899 -9.4788,-9.9504 -4.0433,-3.4563 -8.9824,-7.0038 -14.739,-10.4086 -5.7272,-3.4342 -12.4116,-6.6242 -19.5877,-9.5938 -7.2019,-2.9925 -15.0526,-5.8388 -23.4542,-8.3933 -16.7989,-5.1111 -35.8283,-8.9752 -56.0164,-10.8103 -20.193,-1.825 -39.5656,-1.4722 -56.9974,0.2336 -17.4185,1.7307 -33.0006,4.545 -45.7751,8.3859 -6.3746,1.9247 -12.0269,4.0535 -16.8469,6.2303 -2.4086,1.0942 -4.6109,2.1914 -6.6057,3.258 -1.9705,1.1157 -3.7783,2.0331 -5.4163,3.2399 -3.1632,2.3032 -5.0672,5.1643 -5.1918,7.4639 -0.1145,2.3098 0.9843,3.1425 1.1422,3.0183 0.3415,-0.1155 -0.0298,-1.1577 0.565,-2.676 0.5435,-1.5032 2.3388,-3.4221 5.3212,-5.0205 1.4261,-0.7772 3.3529,-1.4946 5.3568,-2.3522 2.0308,-0.8147 4.2483,-1.6607 6.6527,-2.5091 4.8144,-1.6834 10.3852,-3.3378 16.635,-4.8269 12.492,-2.969 27.7974,-5.1101 44.8612,-6.376 17.0529,-1.239 35.897,-1.3425 55.5248,0.43 39.2187,3.543 74.0187,14.2194 96.8579,25.5633 5.681,2.9214 10.6041,5.9481 14.7201,8.8823 4.1149,2.9435 7.5107,5.7283 9.8074,8.2326 0.5842,0.6333 1.0687,1.2671 1.3475,1.6351 0.3154,0.4412 0.5743,0.9189 0.7241,1.4125 0.3588,1.0309 -0.2089,1.9366 -0.7854,2.3544 -1.1959,0.8414 -2.2076,1.1205 -2.1595,1.454 z" />
    <path
       id="path12"
       style="fill:#1b1918;fill-rule:evenodd"
       d="m 491.552,195.5371 c -0.7341,-0.0632 -4.1107,-1.3446 -8.7194,-5.1538 -2.5084,-2.1702 -5.4008,-5.127 -7.96,-9.1289 -2.5543,-3.9857 -4.9,-8.9291 -6.3447,-14.7234 -1.4334,-5.7772 -2.1523,-12.3867 -1.3217,-19.4097 0.8903,-6.9912 3.0279,-14.3014 6.751,-21.285 3.6245,-7.0268 8.7012,-13.6627 14.6362,-19.7656 2.9514,-3.0788 6.1834,-5.9633 9.5295,-8.7875 0.1575,-0.1325 0.3149,-0.2649 0.4738,-0.3962 -0.1589,0.1313 -0.3163,0.2637 -0.4738,0.3962 -0.4825,0.4071 -0.9461,0.8253 -1.4223,1.2371 1.0768,1.4338 2.3225,2.7428 3.6928,3.9283 -2.7932,2.3701 -5.4799,4.7825 -7.9487,7.3142 -5.7051,5.7643 -10.5439,11.9348 -14.0287,18.4026 -3.5795,6.4133 -5.706,13.1561 -6.7137,19.5399 -0.9497,6.4045 -0.5079,12.5464 0.5917,17.9738 1.1096,5.4463 3.0528,10.1589 5.2022,14.0341 2.1545,3.8899 4.6368,6.858 6.7967,9.1454 4.4394,4.5 7.6563,6.2321 7.4064,6.6513 -0.0101,0.0255 -0.0602,0.0347 -0.1473,0.0272 z m 23.2679,0.7355 c -0.062,-0.005 -0.0965,-0.0203 -0.1055,-0.0422 -0.1958,-0.423 3.1325,-1.9129 8.2836,-5.6789 2.5339,-1.9194 5.552,-4.4003 8.4205,-7.8284 2.8851,-3.3927 5.7044,-7.6644 7.6984,-12.8438 2.0029,-5.1546 3.3019,-11.1748 3.1062,-17.6754 -0.1582,-6.5198 -1.3486,-13.5456 -3.8712,-20.4735 -0.5643,-1.7563 -1.368,-3.4507 -2.0816,-5.1999 -0.8486,-1.693 -1.6069,-3.4524 -2.601,-5.1208 -1.8374,-3.4113 -4.0784,-6.7034 -6.5283,-9.9244 -2.1086,-2.8054 -4.4901,-5.4803 -7.0158,-8.0837 1.4518,-1.0847 2.7531,-2.319 3.9463,-3.6571 -0.3925,-0.4203 -0.7823,-0.8416 -1.1864,-1.2535 3.0881,3.1355 5.9998,6.3751 8.5412,9.8151 2.5766,3.446 4.9247,6.9849 6.8466,10.664 1.0365,1.798 1.8315,3.6987 2.7069,5.5269 0.7429,1.8895 1.5651,3.7226 2.1425,5.6203 2.5754,7.5158 3.6742,15.0197 3.6415,22.0741 0.004,7.1055 -1.6497,13.6553 -4.0685,19.1564 -2.4099,5.5328 -5.6954,9.9781 -8.9946,13.3973 -3.288,3.4563 -6.6729,5.8214 -9.5027,7.5496 -5.2513,3.081 -8.7362,4.0332 -9.3781,3.9779 z m -13.1833,-94.8721 c 0.6565,-0.5476 1.3219,-1.0891 1.9934,-1.6275 l 0,0 c -0.6715,0.5384 -1.3369,1.0799 -1.9934,1.6275 z m 17.2422,0.7319 c -0.6328,-0.6375 -1.2801,-1.2643 -1.9384,-1.884 l 0,0 c 0.6583,0.6197 1.3056,1.2465 1.9384,1.884 z" />
    <path
       id="path14"
       style="fill:#1b1918;fill-rule:evenodd"
       d="m 494.943,194.8324 c -0.522,-0.0449 -2.9253,-0.9572 -6.2064,-3.6701 -1.7855,-1.5437 -3.843,-3.6488 -5.6653,-6.4972 -1.8176,-2.836 -3.4879,-6.3564 -4.5164,-10.4803 -1.0187,-4.1109 -1.5313,-8.8155 -0.9401,-13.8146 0.6344,-4.9762 2.1551,-10.179 4.8046,-15.1507 2.5803,-5.0017 6.1939,-9.7255 10.4187,-14.0688 2.1008,-2.1919 4.4006,-4.2432 6.7832,-6.2542 1.1924,-1.0061 2.4233,-1.977 3.6699,-2.9439 l 1.8966,-1.4247 1.0194,-0.7527 c 0.6395,-0.4549 1.3783,-0.7695 2.1501,-0.7761 0.1049,0.001 0.2107,0.005 0.3176,0.0142 0.1319,0.0113 0.2642,0.0306 0.3959,0.0578 0.3769,0.0817 0.7398,0.2297 1.0789,0.4263 0.3178,0.1772 0.7206,0.4961 0.8356,0.5937 l 0.9237,0.7781 c 0.6108,0.5253 1.2399,1.0214 1.8265,1.5661 1.1905,1.0664 2.3566,2.1455 3.4636,3.2736 2.2154,2.2462 4.3032,4.568 6.1264,7.0341 1.8337,2.4524 3.5053,4.9702 4.8729,7.5898 0.7371,1.2796 1.303,2.6322 1.9264,3.9339 0.5282,1.3444 1.1145,2.6494 1.525,4.0006 1.8329,5.3483 2.6142,10.6899 2.5922,15.7109 0.003,5.0593 -1.1743,9.7207 -2.8963,13.6371 -1.7146,3.9365 -4.0531,7.1012 -6.4017,9.5348 -2.3402,2.4592 -4.7493,4.1439 -6.7646,5.3739 -3.7382,2.1931 -6.2186,2.8708 -6.6744,2.8316 -0.0437,-0.004 -0.0692,-0.0146 -0.0757,-0.0306 -0.1389,-0.3014 2.2311,-1.3616 5.8967,-4.0413 1.8028,-1.3669 3.9519,-3.1323 5.9933,-5.5735 2.0533,-2.4139 4.0611,-5.4542 5.4796,-9.1415 1.4259,-3.6694 2.3512,-7.9543 2.2116,-12.5805 -0.1126,-4.6411 -0.9595,-9.6417 -2.7563,-14.5724 -0.4008,-1.2507 -0.973,-2.4566 -1.4804,-3.7021 -0.6054,-1.2046 -1.1442,-2.4566 -1.852,-3.6437 -1.3084,-2.4297 -2.9032,-4.7723 -4.6472,-7.0645 -1.731,-2.3039 -3.722,-4.4856 -5.8312,-6.6071 -1.054,-1.0656 -2.1662,-2.0881 -3.3022,-3.102 -0.5581,-0.517 -1.1628,-0.9899 -1.744,-1.4886 l -1.0019,-0.8394 10e-5,-0.001 -0.8693,0.6449 -1.845,1.3813 c -1.2119,0.9341 -2.4066,1.8697 -3.5596,2.8337 -2.305,1.9273 -4.5263,3.8834 -6.5423,5.9523 -4.0603,4.1027 -7.5061,8.4943 -9.9858,13.0981 -2.5479,4.5649 -4.0606,9.3646 -4.7785,13.9079 -0.6767,4.5585 -0.3615,8.9314 0.4201,12.7939 0.7909,3.876 2.1735,7.2312 3.7035,9.9894 1.534,2.7691 3.3004,4.8807 4.8384,6.5096 3.1592,3.2026 5.4483,4.4356 5.2713,4.735 -0.007,0.0167 -0.0421,0.0246 -0.1052,0.0191 z" />
    <path
       id="path16"
       style="fill:#1b1918;fill-rule:evenodd"
       d="m 442.4353,176.617 c -0.1323,-0.0539 -0.6114,0.3124 -0.8788,1.425 -0.0789,0.5533 -0.1066,1.3292 0.2898,2.1587 0.3911,0.8128 1.1467,1.5979 2.153,2.1117 1.0057,0.5153 2.247,0.8213 3.6517,0.7345 1.4389,-0.0876 2.9246,-0.7482 4.1328,-1.7278 2.4516,-2.0393 4.0488,-5.1139 4.6863,-8.8154 0.3024,-1.8596 0.2102,-3.9878 -0.4605,-6.0347 -0.6545,-2.0415 -1.8332,-3.9888 -3.4252,-5.6197 -1.5798,-1.6469 -3.5813,-2.9996 -5.8941,-3.8841 -2.3432,-0.859 -4.8053,-1.2024 -7.3452,-1.1105 -5.0067,0.2448 -10.3923,2.3198 -14.0344,6.7627 -0.4705,0.5331 -0.8513,1.1401 -1.253,1.7349 -0.3596,0.6092 -0.6523,1.2465 -0.9761,1.8773 -0.3472,0.622 -0.5942,1.2831 -0.7915,1.9658 -0.1959,0.6802 -0.483,1.3473 -0.5908,2.0486 -0.6318,2.7911 -0.5403,5.6844 -0.0569,8.4902 1.096,5.6036 4.0702,10.5695 8.2291,14.0904 2.0753,1.7764 4.545,3.0498 7.1025,3.8903 1.3207,0.3154 2.6177,0.6699 3.9595,0.6831 1.3221,0.1247 2.6453,0.0738 3.8995,-0.1366 5.0888,-0.8182 8.9514,-3.2367 12.3324,-5.2016 3.359,-2.0041 6.4291,-3.8863 9.2336,-4.722 2.8722,-0.8653 5.7394,-0.9335 8.0606,-0.457 2.3591,0.438 4.1558,1.4848 5.3427,2.6416 0.6206,0.5646 1.0373,1.1846 1.4401,1.7173 0.3144,0.5755 0.6266,1.0683 0.8317,1.4925 0.3707,0.8615 0.6657,1.3348 0.8513,1.3082 0.1865,-0.025 0.2614,-0.5537 0.2122,-1.5991 -0.046,-0.5154 -0.2167,-1.1421 -0.4255,-1.8914 -0.2998,-0.7143 -0.6546,-1.5597 -1.2866,-2.3895 -2.3496,-3.5379 -8.7927,-6.1387 -16.0077,-4.5254 -3.7071,0.8439 -7.0328,2.7052 -10.5035,4.5239 -3.435,1.8109 -7.0324,3.7192 -10.7872,4.1644 -0.9342,0.1322 -1.8702,0.1311 -2.8025,0.008 -0.9455,-0.0126 -1.8586,-0.3234 -2.7932,-0.5462 -1.8121,-0.6668 -3.6128,-1.5972 -5.1745,-2.9828 -3.1327,-2.7219 -5.4983,-6.7219 -6.3333,-11.056 -0.362,-2.1611 -0.4457,-4.3446 0.004,-6.3745 0.0643,-0.5192 0.292,-0.987 0.4198,-1.483 0.1295,-0.4988 0.2984,-0.9781 0.5531,-1.4184 0.2305,-0.4476 0.4274,-0.9203 0.6689,-1.3512 0.2737,-0.4025 0.5129,-0.8253 0.837,-1.1918 2.4068,-3.0847 6.3736,-4.8023 10.1417,-5.0967 1.881,-0.1327 3.7864,0.0844 5.4052,0.6047 1.629,0.5468 3.1299,1.4529 4.3185,2.5775 2.4309,2.2701 3.5288,5.2127 3.2533,8.0319 -0.2445,2.8391 -1.3839,5.5108 -2.8832,7.0164 -0.7713,0.7661 -1.5969,1.2578 -2.4317,1.4275 -0.8623,0.1794 -1.7427,0.1142 -2.4557,-0.1038 -1.4836,-0.4424 -2.0542,-1.4743 -2.1955,-2.3028 -0.1175,-0.8427 -0.0132,-1.3942 -0.2239,-1.4654 z" />
    <path
       id="path18"
       style="fill:#1b1918;fill-rule:evenodd"
       d="m 418.8462,188.3763 c -0.3088,0.0762 -0.289,1.0576 -0.4151,2.7014 -0.1396,1.6169 -0.4651,4.0159 -1.8967,6.2819 -0.7103,1.1151 -1.7129,2.124 -3.0286,2.8475 -1.297,0.7167 -2.8741,1.0804 -4.3253,0.8158 -1.4254,-0.2583 -2.9242,-1.2237 -4.0906,-2.64 -1.1651,-1.3924 -2.0102,-3.1966 -2.3267,-5.1423 -0.7076,-3.9253 1.0069,-7.6812 3.612,-9.9772 1.2892,-1.1849 2.8184,-2.0066 4.3318,-2.5165 1.5083,-0.5348 3.0243,-0.7747 4.4018,-0.743 2.7802,-0.006 4.9739,0.889 6.3785,1.6984 1.4345,0.7859 2.2146,1.4079 2.4818,1.1814 0.1164,-0.0935 0.0637,-0.3597 -0.1608,-0.7949 -0.2375,-0.4198 -0.5761,-1.0851 -1.2704,-1.7117 -1.259,-1.3554 -3.7221,-2.9857 -7.2073,-3.425 -1.7246,-0.2536 -3.6729,-0.1609 -5.6666,0.3551 -1.998,0.4904 -4.0682,1.4184 -5.8954,2.9062 -1.8339,1.4617 -3.4417,3.4664 -4.4332,5.8588 -1.0439,2.3717 -1.3417,5.1829 -0.8934,7.866 0.4442,2.7009 1.639,5.2126 3.3883,7.1955 1.7161,1.9601 4.0771,3.4871 6.7596,3.8322 2.6618,0.3195 5.0625,-0.5201 6.8475,-1.7154 1.8025,-1.1975 3.0872,-2.8424 3.829,-4.4422 1.4771,-3.2441 1.2415,-6.0903 0.8653,-7.8541 -0.4162,-1.7977 -1.0121,-2.6496 -1.2855,-2.5779 z" />
    <path
       id="path20"
       style="fill:#1b1918;fill-rule:evenodd"
       d="m 423.8189,141.8079 c -0.1106,-0.1142 -0.6794,0.0969 -1.444,0.8809 -0.7647,0.772 -1.7213,2.1516 -2.2508,4.2134 -0.495,2.0286 -0.6038,4.8184 0.8494,7.7172 1.4295,2.9196 4.8766,5.3009 8.8296,5.8272 3.9274,0.5441 8.4282,-0.1798 12.3556,-3.0843 3.909,-3.0625 6.0362,-8.0046 6.1454,-13.1977 0.0359,-2.5981 -0.4237,-5.2946 -1.5289,-7.8514 -1.0934,-2.5308 -2.7503,-4.8645 -4.8268,-6.801 -2.0776,-1.9333 -4.5471,-3.5148 -7.2927,-4.5665 -1.3611,-0.5275 -2.8368,-0.944 -4.2292,-1.1606 -0.7079,-0.1234 -1.409,-0.2821 -2.1305,-0.3709 l -2.1964,-0.1677 c -2.9409,-0.0808 -5.9573,0.1506 -8.7443,1.1629 -2.7871,0.9565 -5.3329,2.442 -7.4762,4.2704 -2.107,1.8702 -3.7919,4.0369 -5.1445,6.2906 -1.3359,2.2698 -2.2439,4.6532 -2.9662,7.0051 -2.6049,9.5246 -0.9351,18.6719 2.5875,25.1273 1.7528,3.2486 3.9794,5.8252 6.2094,7.7181 2.2154,1.9368 4.5237,3.0397 6.375,3.8498 1.9141,0.7027 3.4273,1.1036 4.4958,1.1825 1.0557,0.1229 1.6155,0.0954 1.6586,-0.0857 0.0435,-0.1818 -0.4304,-0.5094 -1.3439,-0.9599 -0.9296,-0.403 -2.241,-1.1012 -3.8605,-2.0202 -1.5562,-1.0249 -3.4686,-2.2574 -5.2295,-4.1667 -1.7792,-1.8703 -3.5102,-4.266 -4.8334,-7.2055 -1.3274,-2.9305 -2.2512,-6.3855 -2.5502,-10.157 -0.2972,-3.7688 0.1236,-7.8514 1.3306,-11.8637 0.6816,-1.9753 1.4945,-3.9581 2.629,-5.786 1.1488,-1.8105 2.5242,-3.5029 4.1669,-4.9257 1.6771,-1.3758 3.5967,-2.4602 5.6995,-3.1715 2.0931,-0.7611 4.4195,-0.9127 6.7621,-0.8597 l 1.7672,0.1296 c 0.5878,0.0721 1.174,0.2099 1.7588,0.3069 1.2051,0.1806 2.2482,0.4804 3.3024,0.8753 2.0951,0.7804 3.9998,1.976 5.5937,3.416 3.2179,2.905 4.9658,6.8262 4.9709,10.749 0.0775,3.8827 -1.5075,7.6633 -3.9637,9.7477 -2.5375,2.1265 -6.1007,3.0053 -9.0398,2.7721 -2.9885,-0.2189 -5.3767,-1.6049 -6.6229,-3.5234 -1.261,-1.9356 -1.5317,-4.1472 -1.4061,-5.8678 0.3108,-3.5399 1.9566,-5.1589 1.5931,-5.4491 z" />
    <path
       id="path22"
       style="fill:#1b1918;fill-rule:evenodd"
       d="m 460.3417,130.1159 c -0.1899,-0.1944 -1.0357,0.7817 -3.0023,1.0253 -0.955,0.1157 -2.1949,-0.002 -3.3131,-0.641 -1.1179,-0.6378 -2.1404,-1.8505 -2.5834,-3.4236 -0.2052,-0.8039 -0.3251,-1.5844 -0.1487,-2.5267 0.0685,-0.926 0.3178,-1.8501 0.7233,-2.7046 0.8115,-1.7044 2.3914,-3.1443 4.4894,-3.7442 2.0744,-0.5731 4.565,-0.4915 6.6712,0.6075 1.0954,0.47 1.9843,1.294 2.8087,2.1577 0.7178,0.9305 1.4006,2.0673 1.8744,3.3046 1.9337,4.9598 1.0445,10.5701 -1.4547,14.4289 -2.4719,3.9406 -6.5453,6.0447 -10.0755,6.8006 -3.5772,0.8046 -6.6409,0.388 -8.6628,-0.0929 -2.0371,-0.4979 -3.1401,-1.0073 -3.2719,-0.7834 -0.1026,0.1556 0.7893,1.0529 2.8613,1.9804 2.0504,0.8977 5.3877,1.7519 9.4968,1.1523 2.037,-0.2973 4.2605,-0.9332 6.4054,-2.1464 2.1297,-1.2028 4.2503,-2.947 5.7826,-5.2728 3.142,-4.5537 4.3298,-11.1489 1.9851,-17.2277 -0.5871,-1.5083 -1.3841,-2.8916 -2.4411,-4.2202 -1.1344,-1.2103 -2.4143,-2.3055 -3.904,-2.94 -2.907,-1.4281 -6.1985,-1.4804 -9.0057,-0.596 -2.8332,0.8928 -5.0847,3.086 -6.0577,5.5131 -0.4959,1.2042 -0.7374,2.4477 -0.7542,3.6093 -0.134,1.141 0.0987,2.3986 0.4732,3.4174 0.7716,2.094 2.3246,3.6272 3.9735,4.3322 1.6798,0.7077 3.2612,0.597 4.4036,0.2505 2.3582,-0.7666 2.8893,-2.2091 2.7266,-2.2603 z" />
    <path
       id="path24"
       style="fill:#1b1918;fill-rule:evenodd"
       d="m 563.7911,187.0666 c 0.1393,-0.0305 0.5487,0.4124 0.6216,1.5542 -0.0176,0.5586 -0.1223,1.3279 -0.6543,2.0774 -0.5239,0.734 -1.4025,1.3784 -2.4829,1.7126 -1.0779,0.3359 -2.3537,0.4251 -3.7228,0.0995 -1.4024,-0.3323 -2.7533,-1.2372 -3.777,-2.409 -2.0669,-2.4284 -3.1143,-5.7306 -3.1096,-9.4866 0.0199,-1.884 0.4743,-3.9651 1.4849,-5.8673 0.9935,-1.8995 2.4877,-3.6166 4.3355,-4.9514 1.8389,-1.3525 4.0406,-2.3433 6.4705,-2.8194 2.4563,-0.4457 4.9402,-0.3632 7.4285,0.1616 4.89,1.0971 9.8424,4.0622 12.6718,9.0623 0.3713,0.6056 0.6435,1.2689 0.9364,1.9234 0.2509,0.6619 0.4304,1.3398 0.6416,2.0166 0.2353,0.6722 0.3657,1.3658 0.4441,2.0723 0.0764,0.7036 0.2452,1.41 0.2319,2.1194 0.1443,2.858 -0.4397,5.6931 -1.3956,8.375 -2.0382,5.3337 -5.8175,9.718 -10.5179,12.476 -2.348,1.3956 -4.9983,2.2281 -7.6625,2.619 -1.3552,0.085 -2.6926,0.2126 -4.0177,-0.004 -1.3243,-0.1031 -2.6189,-0.3794 -3.8187,-0.8011 -4.8737,-1.6761 -8.2671,-4.7193 -11.2613,-7.2332 -2.967,-2.5488 -5.6701,-4.9281 -8.2905,-6.231 -2.6824,-1.3436 -5.4957,-1.9008 -7.8642,-1.8281 -2.3989,0.0283 -4.3481,0.7525 -5.7156,1.6893 -0.708,0.4502 -1.2246,0.9899 -1.7125,1.4458 -0.4082,0.5133 -0.7999,0.9455 -1.0745,1.3284 -0.5122,0.7854 -0.8841,1.2013 -1.0624,1.1434 -0.1796,-0.0565 -0.163,-0.5902 0.0646,-1.6117 0.1345,-0.5 0.4084,-1.0884 0.7421,-1.791 0.419,-0.6523 0.9116,-1.4248 1.6766,-2.1343 2.9198,-3.0841 9.7137,-4.5452 16.5453,-1.7223 3.5082,1.4651 6.4668,3.8676 9.5755,6.2528 3.0756,2.3715 6.2931,4.8666 9.9165,5.9472 0.8979,0.29 1.8203,0.4488 2.7599,0.4872 0.9338,0.1493 1.8869,-9e-4 2.8454,-0.0606 1.8995,-0.3472 3.8335,-0.9561 5.609,-2.0543 3.5508,-2.1464 6.5669,-5.683 8.1294,-9.8107 0.726,-2.0674 1.1825,-4.2044 1.0851,-6.2814 0.0265,-0.5224 -0.1179,-1.0223 -0.1601,-1.5329 -0.0423,-0.5137 -0.1264,-1.0147 -0.3017,-1.492 -0.1514,-0.4805 -0.2634,-0.9799 -0.4281,-1.4457 -0.2008,-0.4434 -0.3647,-0.9009 -0.6209,-1.3174 -1.8445,-3.4507 -5.4592,-5.8212 -9.122,-6.7553 -1.829,-0.4523 -3.7446,-0.5641 -5.4275,-0.3281 -1.6996,0.2601 -3.3329,0.8963 -4.6962,1.8012 -2.7832,1.8211 -4.3687,4.5327 -4.5785,7.3575 -0.2444,2.8391 0.4215,5.6663 1.6406,7.406 0.6301,0.8868 1.3599,1.5123 2.1523,1.8222 0.8193,0.3242 1.6975,0.4104 2.4372,0.3175 1.5386,-0.1822 2.2764,-1.1014 2.5569,-1.8936 0.2598,-0.8102 0.2509,-1.3714 0.4718,-1.4055 z" />
    <path
       id="path26"
       style="fill:#1b1918;fill-rule:evenodd"
       d="m 585.0216,202.6852 c 0.2917,0.1279 0.1052,1.0916 -0.052,2.7326 -0.1392,1.6171 -0.2282,4.0364 0.7949,6.5138 0.5081,1.2199 1.3243,2.3855 2.4969,3.3232 1.1561,0.928 2.6479,1.5559 4.1225,1.5432 1.4486,-0.0107 3.0896,-0.7058 4.4821,-1.9017 1.3849,-1.1729 2.5267,-2.806 3.1704,-4.669 1.3689,-3.7465 0.3213,-7.7403 -1.8529,-10.4478 -1.0676,-1.3878 -2.4332,-2.4588 -3.8378,-3.22 -1.3943,-0.7847 -2.8467,-1.2802 -4.2101,-1.4845 -2.7374,-0.4811 -5.0518,0.0257 -6.5749,0.583 -1.5473,0.5292 -2.4227,1.0086 -2.6476,0.7397 -0.098,-0.112 -5e-4,-0.3652 0.2947,-0.7556 0.3058,-0.3731 0.7528,-0.9707 1.5448,-1.4693 1.4717,-1.1203 4.1777,-2.3055 7.6866,-2.1426 1.7422,0.045 3.6467,0.4694 5.5229,1.3187 1.8847,0.8247 3.7662,2.0929 5.3114,3.8711 1.5578,1.7538 2.7981,4.0037 3.3664,6.5304 0.6228,2.5153 0.4371,5.3361 -0.4641,7.903 -0.8997,2.5851 -2.5067,4.8556 -4.5691,6.5103 -2.0253,1.6379 -4.6136,2.7388 -7.3149,2.6203 -2.6769,-0.1402 -4.899,-1.3779 -6.4538,-2.8608 -1.5701,-1.4879 -2.5548,-3.3282 -3.0126,-5.0312 -0.9007,-3.4489 -0.182,-6.2129 0.4894,-7.8865 0.7174,-1.7001 1.4501,-2.4376 1.7068,-2.3203 z" />
    <path
       id="path28"
       style="fill:#1b1918;fill-rule:evenodd"
       d="m 588.0829,155.9522 c 0.1289,-0.0936 0.6536,0.2117 1.2729,1.1149 0.6218,0.8914 1.3274,2.4141 1.4978,4.5361 0.1405,2.0834 -0.2291,4.8508 -2.1561,7.4584 -1.9076,2.6324 -5.7117,4.3892 -9.6962,4.2321 -3.9626,-0.1353 -8.2737,-1.618 -11.6461,-5.151 -3.3276,-3.6857 -4.5794,-8.9188 -3.7984,-14.054 0.408,-2.5661 1.3218,-5.1443 2.8477,-7.4745 1.5092,-2.3068 3.5418,-4.3227 5.9181,-5.8758 2.3774,-1.5497 5.0806,-2.6858 7.9666,-3.2526 1.4309,-0.287 2.9558,-0.4452 4.3651,-0.4206 0.7186,-6e-4 1.4361,-0.037 2.1617,-0.001 l 2.1928,0.2103 c 2.9126,0.4232 5.8442,1.1668 8.4168,2.6406 2.5837,1.419 4.837,3.3177 6.6369,5.4856 1.7566,2.2029 3.046,4.6257 3.9927,7.0774 0.9282,2.4647 1.4164,4.9683 1.7253,7.4091 0.9384,9.8296 -2.2697,18.557 -6.8445,24.3151 -2.2827,2.9011 -4.9169,5.0591 -7.4374,6.543 -2.5138,1.5296 -4.977,2.2216 -6.9396,2.7034 -2.006,0.3651 -3.5658,0.5014 -4.631,0.3965 -1.0612,-0.0594 -1.6084,-0.1821 -1.6203,-0.368 -0.0118,-0.1865 0.5123,-0.4282 1.489,-0.716 0.9848,-0.2381 2.3963,-0.7019 4.1487,-1.3305 1.7092,-0.7437 3.8023,-1.6313 5.8651,-3.2114 2.0724,-1.5387 4.1874,-3.6032 5.9937,-6.2732 1.8091,-2.6604 3.31,-5.9066 4.2485,-9.5716 0.9379,-3.6624 1.2201,-7.757 0.7167,-11.9165 -0.3335,-2.0627 -0.7947,-4.1552 -1.6004,-6.1502 -0.8224,-1.9803 -1.8882,-3.8828 -3.2635,-5.5655 -1.4176,-1.6423 -3.1232,-3.0388 -5.0739,-4.0992 -1.9322,-1.1077 -4.1984,-1.6548 -6.5144,-2.0029 l -1.7645,-0.1745 c -0.5907,-0.0294 -1.1926,0.006 -1.7858,0.002 -1.2167,-0.028 -2.2968,0.089 -3.4026,0.2979 -2.1981,0.4107 -4.2791,1.2632 -6.0961,2.4094 -3.666,2.3123 -6.0589,5.8769 -6.7345,9.7411 -0.7397,3.8123 0.1749,7.8082 2.2391,10.2819 2.1365,2.5289 5.4964,4.0038 8.4324,4.2766 2.9823,0.2951 5.5715,-0.6623 7.1274,-2.3395 1.5733,-1.6915 2.2188,-3.8242 2.3892,-5.5409 0.2985,-3.541 -1.0459,-5.4175 -0.6389,-5.6414 z" />
    <path
       id="path30"
       style="fill:#1b1918;fill-rule:evenodd"
       d="m 554.0975,138.1889 c 0.2196,-0.1591 0.8865,0.9473 2.7821,1.5234 0.9216,0.2774 2.1626,0.3737 3.3743,-0.0651 1.2101,-0.4374 2.4252,-1.4574 3.1296,-2.9317 0.3403,-0.757 0.5918,-1.5054 0.5787,-2.4641 0.0916,-0.924 0.004,-1.8771 -0.2499,-2.7883 -0.5086,-1.8181 -1.8186,-3.5068 -3.7829,-4.4566 -1.9458,-0.9192 -4.4134,-1.2646 -6.6772,-0.5418 -1.1593,0.2758 -2.1759,0.9357 -3.1362,1.6457 -0.8648,0.7943 -1.7334,1.7974 -2.4118,2.9356 -2.753,4.5562 -2.8359,10.2359 -1.0317,14.4653 1.7604,4.3051 5.4138,7.0744 8.7635,8.4228 3.387,1.4042 6.4764,1.5175 8.5508,1.3893 2.0929,-0.1423 3.266,-0.4557 3.3576,-0.2126 0.0745,0.1709 -0.9577,0.9025 -3.1569,1.4622 -2.1748,0.5339 -5.6079,0.8051 -9.5544,-0.4881 -1.9562,-0.6412 -4.0379,-1.6477 -5.9442,-3.2098 -1.8931,-1.5492 -3.6828,-3.6301 -4.7961,-6.1838 -2.3173,-5.0237 -2.3605,-11.7249 0.9888,-17.3134 0.8363,-1.3857 1.8581,-2.6125 3.1277,-3.7407 1.3235,-0.9987 2.7718,-1.859 4.348,-2.2295 3.1087,-0.91 6.3615,-0.3988 8.9751,0.9524 2.6392,1.3639 4.4822,3.9097 5.0268,6.4675 0.282,1.2712 0.3073,2.5377 0.126,3.6851 -0.063,1.1471 -0.5076,2.3464 -1.0504,3.2862 -1.1185,1.9312 -2.9105,3.1764 -4.6563,3.5891 -1.7761,0.4102 -3.3156,0.0307 -4.382,-0.506 -2.1921,-1.1584 -2.4684,-2.6704 -2.299,-2.6931 z" />
    <path
       id="path32"
       style="fill:#1b1918;fill-rule:evenodd"
       d="m 522.2926,173.1723 c 1.1996,-13.9318 -5.5147,-25.8878 -14.9979,-26.7044 -9.4831,-0.8166 -18.1425,9.8157 -19.3421,23.7475 -1.1997,13.933 5.5145,25.8894 14.9977,26.7059 9.4832,0.8166 18.1426,-9.816 19.3423,-23.749 z" />
    <path
       id="path34"
       style="fill:#1b1918;fill-rule:evenodd"
       d="m 517.9867,172.8016 c 0.8987,-10.4378 -4.1325,-19.3944 -11.2368,-20.0061 -7.1044,-0.6117 -13.5926,7.3529 -14.4914,17.7907 -0.8987,10.4374 4.1324,19.3951 11.2367,20.0068 7.1044,0.6117 13.5927,-7.354 14.4915,-17.7914 z" />
    <path
       id="path36"
       style="fill:#1b1918;fill-rule:evenodd"
       d="m 503.4717,190.591 c -0.003,-3e-4 -0.005,-5e-4 -0.008,-7e-4 0.003,2e-4 0.006,4e-4 0.008,7e-4 z m -0.025,-0.002 c -0.003,-2e-4 -0.006,-5e-4 -0.008,-7e-4 0.003,2e-4 0.006,5e-4 0.008,7e-4 z m -0.0266,-0.002 c -0.001,-1e-4 -0.004,-3e-4 -0.005,-4e-4 0.003,2e-4 0.004,3e-4 0.005,4e-4 z m -0.0301,-0.004 c 0,0 0,0 -0.001,-1e-4 0.001,1e-4 0.001,1e-4 0.001,1e-4 z m -0.0239,-0.002 c -0.001,-1e-4 -0.004,-3e-4 -0.005,-4e-4 0.002,1e-4 0.003,2e-4 0.005,4e-4 z m -0.0251,-0.002 c -0.003,-2e-4 -0.004,-3e-4 -0.005,-5e-4 0.002,2e-4 0.004,4e-4 0.005,5e-4 z m -0.0276,-0.002 c -0.001,-1e-4 -10e-4,-0.002 -0.002,-0.002 0.002,1e-4 0.001,0.002 0.002,0.002 z m -0.0526,-0.006 c -0.001,-1e-4 -0.003,-3e-4 -0.003,-3e-4 0,0 0.002,2e-4 0.003,3e-4 z m -0.026,-0.003 c 0,0 -0.002,-2e-4 -0.003,-3e-4 0.001,1e-4 0.001,1e-4 0.003,3e-4 z" />
    <path
       id="path38"
       style="fill:#1b1918;fill-rule:evenodd"
       d="m 503.4952,190.593 0,0 c -0.008,-7e-4 -0.0156,-0.001 -0.0235,-0.002 -0.003,-3e-4 -0.005,-5e-4 -0.008,-7e-4 -0.005,-5e-4 -0.0116,-0.001 -0.0168,-0.002 -0.003,-2e-4 -0.006,-5e-4 -0.008,-7e-4 -0.005,-4e-4 -0.0116,-0.001 -0.0184,-0.002 -0.001,-1e-4 -0.003,-2e-4 -0.005,-4e-4 -0.008,-7e-4 -0.0157,-0.001 -0.0249,-0.003 0,0 0,0 -0.001,-1e-4 -0.008,-7e-4 -0.0142,-0.001 -0.0224,-0.002 -0.003,-2e-4 -0.004,-3e-4 -0.005,-4e-4 -0.006,-6e-4 -0.013,-0.001 -0.0198,-0.002 -0.001,-1e-4 -0.004,-3e-4 -0.005,-5e-4 -0.008,-6e-4 -0.0157,-0.001 -0.0224,-0.002 -0.001,-1e-4 -10e-4,-0.002 -0.002,-0.002 -0.0172,-0.001 -0.0329,-0.003 -0.0501,-0.004 -0.001,-1e-4 -0.003,-3e-4 -0.003,-3e-4 -0.008,-0.001 -0.0156,-0.002 -0.0234,-0.003 -0.002,-2e-4 -0.002,-2e-4 -0.003,-3e-4 -4.3583,-0.5055 -7.9026,-4.1703 -9.7313,-9.3654 3.4711,-3.5624 6.9134,-7.1195 9.3718,-11.2562 2.0495,-0.3336 3.6884,-2.0047 3.8728,-4.1456 0.1005,-1.1675 -0.2489,-2.2718 -0.9069,-3.1453 0.729,-3.2208 0.7868,-6.563 0.3199,-9.8658 0.1973,0.004 0.3923,-0.0102 0.5915,0.007 7.1043,0.6117 12.1355,9.5683 11.2368,20.0061 -0.8988,10.4374 -7.3871,18.4031 -14.4915,17.7914 z" />
    <path
       id="path40"
       style="fill:#ffffff;fill-rule:evenodd"
       d="m 501.7043,169.9891 c -2.5649,-0.2208 -4.4679,-2.4548 -4.2496,-4.9895 0.2182,-2.5342 2.4751,-4.41 5.04,-4.1892 1.3839,0.1192 2.574,0.8231 3.3439,1.8439 0.6384,0.8477 0.9863,1.9123 0.9147,3.0417 -0.002,0.0345 -0.005,0.0692 -0.008,0.1036 -0.0819,0.8978 -0.4279,1.7601 -0.9902,2.4682 -0.6762,0.8511 -1.6649,1.4792 -2.8826,1.6774 -0.3772,0.0616 -0.769,0.0783 -1.1684,0.0439 z" />
    <path
       id="path42"
       style="fill:#1b1918;fill-rule:evenodd"
       d="m 500.4046,102.4589 c -0.003,-0.004 -0.007,-0.007 -0.0112,-0.0103 0.4125,-0.3496 0.8265,-0.699 1.2432,-1.0481 l 0,0 c -0.4183,0.3505 -0.8204,0.7062 -1.232,1.0584 z m -1.8079,-5.5719 c 0.6696,-0.5596 1.349,-1.1108 2.0334,-1.6586 l 0,0 c -0.6844,0.5478 -1.3638,1.099 -2.0334,1.6586 z" />
    <path
       id="path44"
       style="fill:#1b1918;fill-rule:evenodd"
       d="m 500.3934,102.4486 c -1.3703,-1.1855 -2.616,-2.4945 -3.6928,-3.9283 0.4762,-0.4118 0.9398,-0.83 1.4223,-1.2371 0.1575,-0.1325 0.3149,-0.2649 0.4738,-0.3962 0.6696,-0.5596 1.349,-1.1108 2.0334,-1.6586 0.7438,1.7743 1.7656,3.3227 2.9999,4.5446 -0.6715,0.5384 -1.3369,1.0799 -1.9934,1.6275 l 0,0 c -0.4167,0.3491 -0.8307,0.6985 -1.2432,1.0481 z" />
    <path
       id="path46"
       style="fill:#1b1918;fill-rule:evenodd"
       d="m 520.1096,103.4119 c -0.3848,-0.4046 -0.7653,-0.8107 -1.1623,-1.21 -0.0221,-0.023 -0.0453,-0.0465 -0.0685,-0.0695 0.0232,0.023 0.0464,0.0465 0.0685,0.0695 0.3959,0.398 0.7891,0.7981 1.1779,1.1997 -0.005,0.003 -0.01,0.007 -0.0156,0.0103 z m 2.7755,-4.9209 c -0.0222,-0.023 -0.044,-0.0448 -0.0662,-0.0667 -0.7919,-0.8089 -1.6069,-1.5991 -2.4375,-2.3782 l 0,0 c 0.8306,0.7791 1.6456,1.5693 2.4375,2.3782 0.0222,0.0219 0.044,0.0437 0.0662,0.0667 z" />
    <path
       id="path48"
       style="fill:#1b1918;fill-rule:evenodd"
       d="m 520.1252,103.4016 c -0.3888,-0.4016 -0.782,-0.8017 -1.1779,-1.1997 -0.0221,-0.023 -0.0453,-0.0465 -0.0685,-0.0695 -0.6328,-0.6375 -1.2801,-1.2643 -1.9384,-1.884 1.3365,-1.1011 2.5085,-2.5298 3.441,-4.2023 0.8306,0.7791 1.6456,1.5693 2.4375,2.3782 0.0222,0.0219 0.044,0.0437 0.0662,0.0667 0.4041,0.4119 0.7939,0.8332 1.1864,1.2535 -1.1932,1.3381 -2.4945,2.5724 -3.9463,3.6571 z" />
    <path
       id="path50"
       style="fill:#1b1918;fill-rule:evenodd"
       d="m 522.6333,88.524 c 0.7211,-8.3746 -3.9073,-15.6129 -10.3381,-16.1667 -6.4292,-0.5536 -12.2269,5.7869 -12.948,14.1616 -0.7213,8.3762 3.9072,15.6144 10.3364,16.168 6.4308,0.5538 12.2285,-5.7867 12.9497,-14.1629 z" />
    <path
       id="path52"
       style="fill:#1b1918;fill-rule:evenodd"
       d="m 519.7124,88.2725 c 0.5402,-6.2738 -2.9272,-11.6977 -7.7446,-12.1125 -4.816,-0.4147 -9.1595,4.3366 -9.6997,10.6104 -0.5403,6.2753 2.9271,11.698 7.7431,12.1127 4.8174,0.4148 9.1608,-4.3353 9.7012,-10.6106 z" />
    <path
       id="path54"
       style="fill:#1b1918;fill-rule:evenodd"
       d="m 510.0112,98.8831 c -3.0368,-0.2615 -5.5342,-2.5162 -6.8318,-5.7177 2.5746,-2.3449 5.1264,-4.6865 6.7731,-7.5099 1.1366,-0.2126 2.0378,-1.1497 2.1407,-2.345 0.0586,-0.6803 -0.1529,-1.3237 -0.5452,-1.825 0.3401,-1.7472 0.3224,-3.5479 0.0196,-5.3336 0.1337,0.0036 0.2657,-0.0035 0.4002,0.0081 4.8174,0.4148 8.2848,5.8387 7.7446,12.1125 l 0,0 c -0.5404,6.2753 -4.8838,11.0254 -9.7012,10.6106 z" />
    <path
       id="path56"
       style="fill:#ffffff;fill-rule:evenodd"
       d="m 509.2288,85.6902 c -1.4567,-0.1254 -2.5384,-1.3937 -2.4144,-2.8343 0.124,-1.4396 1.4067,-2.5054 2.8634,-2.3799 0.7682,0.0661 1.4322,0.45 1.8703,1.0094 0.3923,0.5013 0.6038,1.1446 0.5452,1.825 -0.1029,1.1952 -1.0041,2.1324 -2.1407,2.345 -0.2334,0.0435 -0.4761,0.0561 -0.7238,0.0348 z" />
    <path
       id="path58"
       style="fill:#1b1918;fill-rule:evenodd"
       d="m 518.9744,436.9233 c 1.1517,0 2.0852,0.9335 2.0852,2.0852 0,1.1517 -0.9335,2.0851 -2.0852,2.0851 -1.1517,0 -2.0851,-0.9334 -2.0851,-2.0851 0,-1.1517 0.9334,-2.0852 2.0851,-2.0852 z M 258.2418,323.9755 c 1.4056,-22.2656 -33.7471,-35.1747 -68.6624,-10.058 -44.652,32.1136 -38.6065,99.0449 30.6832,105.0574 35.9654,3.1216 67.6026,-12.2749 79.7018,-41.6443 10.2076,-24.7832 5.1422,-38.1591 -8.2885,-59.2153 -5.6117,-8.8033 -15.214,-25.5862 -18.0569,-35.5591 -9.0943,-31.9144 36.1041,-45.5868 60.9628,17.6149 12.9969,-10.0127 34.4183,-25.8032 47.2574,-55.4485 -19.7398,27.5739 -28.495,34.0161 -44.4173,42.2511 -37.916,-75.957 -98.5287,-44.0425 -68.4097,10.78 9.3057,16.9463 16.4905,28.1999 25.2814,46.0343 6.3118,23.3542 -0.431,40.7933 -15.406,51.6145 -5.6049,4.0495 -26.5801,13.5447 -40.4295,14.6415 -9.6723,0.766 -21.5354,0.8126 -31.0415,-1.09 -41.0898,-8.2322 -50.5767,-56.8006 -22.1558,-84.7301 11.4541,-11.259 44.1935,-25.5423 59.8577,-11.3702 19.6602,17.785 -26.2534,47.0831 -34.9331,32.2041 -4.3213,-8.9474 8.7154,-16.9545 21.3926,-14.1212 -6.2926,-19.8455 -46.1401,-5.4799 -37.0787,23.4777 6.7648,21.6094 62.2476,-6.7401 63.7425,-30.4388 z m 186.8416,159.8319 c 2.8278,9.8891 33.3819,9.4017 36.5488,-3.6158 -13.9771,7.4621 -18.2312,8.1348 -36.5488,3.6158 z m -10.1349,-10.5151 c 21.5395,-0.5038 25.0001,5.8066 29.9762,1.6363 3.8409,-3.2218 9.6187,-4.1278 13.8371,-4.4902 6.0688,-0.5217 7.4731,0.534 14.6388,-0.7976 -9.0587,-5.6515 -19.9348,-3.8546 -29.1416,0.9582 -12.7128,4.3076 -18.3891,-7.0023 -29.3105,2.6933 z m 8.9845,46.2718 c -0.6218,0.1167 -67.4433,50.4586 -75.8307,56.8377 -0.6754,-13.6641 57.4774,-55.1904 75.8307,-56.8377 z m -79.7347,54.5535 c 2.7221,-20.2381 17.1344,-38.6848 34.535,-49.0708 8.7607,-5.2301 43.6389,-19.7851 56.2378,-19.155 -12.0758,6.2678 -24.0625,11.6489 -35.3682,18.5688 -26.0585,15.9511 -44.9897,32.6764 -55.4046,49.657 z m 96.5438,72.6308 c 6.5025,-9.9536 61.5433,-38.6559 72.3179,-42.2813 -0.162,3.4909 -0.6795,4.3914 1.8325,7.0202 l 0.8854,-8.548 c 2.0358,-0.7413 3.6062,-1.5841 5.0654,-2.7331 -0.4475,-0.3446 -4.5369,0.7248 -5.1285,0.9925 l 0.5848,-8.7827 c 2.8113,-1.5992 16.1583,-9.2385 19.8317,-10.0772 -0.2676,1.3041 -14.0937,27.3118 -17.31,38.9593 -3.2163,11.6448 -6.8499,28.5513 -6.552,42.7426 1.6335,-1.7599 -0.004,0.9677 1.8984,-2.6412 0.3679,-0.7 0.8168,-1.9877 1.0721,-2.8484 0.6905,-2.3075 1.1518,-4.6164 1.7667,-7.1574 1.3288,-5.4854 2.4545,-8.0249 3.8492,-13.5185 3.6459,-14.356 12.8747,-35.9998 18.4823,-49.8094 4.11,-10.1225 10.813,-12.6716 23.9706,-18.8571 40.1947,-18.9052 76.4621,-37.0691 84.7575,-91.3521 -9.6489,35.9146 -25.696,63.6931 -101.0037,92.5628 4.8814,-12.4821 20.492,-29.589 22.3328,-36.1287 -9.2041,4.5959 -22.8929,34.093 -33.1293,39.8845 -3.9027,2.2087 -10.0717,6.0071 -19.6094,10.5865 3.7338,-34.2646 53.1052,-71.5753 65.7357,-85.3272 34.9496,-34.4884 57.406,-97.7751 39.3327,-149.5557 4.5574,55.9962 4.1978,84.8976 -44.9293,147.8288 -34.6572,44.3966 -53.863,42.3966 -63.8111,88.3623 -41.0486,24.9232 -144.3737,76.4443 -155.6492,146.942 22.1022,-43.7117 34.6956,-59.2771 78.7697,-89.8572 -20.1599,28.5979 -19.8029,79.2968 2.8031,100.0002 -5.5705,-13.8082 -26.263,-65.3485 1.834,-96.4065 z m 72.6761,-53.0064 -0.2676,8.1156 c -19.177,8.1265 -51.1533,24.3439 -69.5519,35.0141 10.6235,-12.9681 55.6008,-37.4576 69.8195,-43.1297 z M 319.9018,694.9119 c 16.0513,-76.3592 91.0556,-96.5616 159.5574,-120.5527 -35.5481,9.0119 -160.8024,34.8837 -159.5574,120.5527 z M 626.9461,388.6322 c -25.7372,105.3429 -52.0235,95.6913 -109.969,163.6645 57.767,-41.9793 109.8372,-87.0486 109.969,-163.6645 z m 35.2667,6.3214 c 6.051,-8.6921 5.0379,-42.2374 4.0029,-52.4134 -0.8072,-7.9151 -5.6365,-29.3145 -9.7944,-33.883 4.4641,13.9044 6.7702,25.6576 4.2733,36.1398 -8.3256,-34.9153 -30.8918,-84.0122 -80.4404,-122.1629 45.0721,38.6916 85.8832,121.1237 81.9586,172.3195 z m -69.1744,-89.4221 c 2.1127,-43.2888 -15.2441,-59.4362 -27.0742,-71.0755 17.2002,18.7981 25.475,43.7418 27.0742,71.0755 z m -69.048,150.5468 c -6.7854,8.0785 -28.189,24.7296 -40.0342,30.2439 -36.9249,17.1975 -87.2216,23.9911 -110.2751,55.5638 -11.7231,16.054 -24.5842,56.2309 -16.0156,74.8313 8.2075,-20.8434 5.7751,-31.8129 27.9102,-48.2691 14.669,-10.9063 30.7354,-18.2504 45.2698,-25.1922 37.4603,-17.8853 113.8703,-37.5303 170.3373,-118.3715 -0.3596,12.2063 -17.4309,47.3206 -24.009,55.1218 -49.6487,58.8693 -121.4902,48.4531 -176.5571,87.8461 -11.5021,8.2282 -18.8269,18.8187 -26.0584,30.6832 l -0.1991,2.8058 c 0.8072,-1.046 1.7777,-0.9265 2.6645,-1.3878 3.2423,-7.6708 15.1837,-19.2401 20.2641,-23.6918 31.7525,-27.832 88.1509,-27.0729 131.8187,-51.6269 10.2076,-5.7407 17.8866,-10.6592 27.659,-18.1625 22.9342,-17.6066 38.4144,-40.2744 46.0316,-69.1702 8.2611,-31.3421 19.4982,-47.2012 -5.2657,-123.4629 4.7221,52.0935 -9.1644,131.599 -78.7629,156.5016 0.9664,-1.7557 5.7778,-6.5396 7.7051,-8.8458 21.6726,-25.9006 29.3255,-58.2804 29.3352,-91.5059 -2.7359,19.4831 -8.5988,58.4452 -31.8184,86.0891 z m -87.8393,73.2047 c 42.3664,-26.7297 108.901,-60.474 138.7111,-97.4168 4.9294,-6.11 25.9568,-43.1187 27.1442,-43.7323 -1.1874,77.0003 -127.3696,136.4393 -190.0002,159.0961 3.7764,-4.8389 19.026,-14.4946 24.1449,-17.947 z m 51.4291,-152.5619 c -1.4112,-11.9647 57.1562,-30.3002 43.0034,-9.745 -4.6055,6.692 -24.0063,8.7182 -29.8417,11.2577 21.7536,-4.217 33.8171,2.3034 40.4212,1.4235 4.1773,-16.7307 42.1455,-35.9544 39.3794,-37.3628 -10.6015,-5.4058 -102.058,15.973 -92.9623,34.4266 z m 45.4221,-7.2123 c 5.6872,-3.1683 4.2239,-15.9085 18.6938,-14.4658 -2.1758,3.1024 -8.3682,12.9283 -18.6938,14.4658 z m -82.9387,41.0458 c -7.2178,14.2132 -57.7423,73.6344 -47.3631,93.5787 14.5344,-43.9643 8.504,-34.5433 36.2839,-71.5039 11.0284,-14.6744 19.6135,-28.6968 26.5389,-45.7131 25.8978,-58.9476 67.0136,-48.8031 111.0589,-53.0517 -1.7296,-0.9046 -23.5615,-2.1689 -27.2706,-2.3323 -66.8009,-2.928 -73.4105,28.145 -99.248,79.0223 z" />
    <path
       id="path60"
       style="fill:#1b1918;fill-rule:evenodd"
       d="m 316.3025,455.2258 c 5.4923,-0.652 10.8871,-1.7474 16.1817,-3.2849 5.2974,-1.5361 10.2762,-3.2877 14.9421,-5.2534 4.6646,-1.9657 8.8404,-3.9233 12.5289,-5.8684 3.6885,-1.9438 6.7566,-3.7421 9.2082,-5.3934 6.8239,-4.7675 12.7431,-10.3133 17.7562,-16.6361 5.0132,-6.3241 7.8054,-12.6895 8.375,-19.0946 0.2828,-3.3797 -0.4461,-6.25 -2.1867,-8.6084 -1.7393,-2.3583 -4.6508,-3.4935 -8.7347,-3.4043 -4.2609,0.0933 -8.5054,1.0295 -12.7292,2.8086 -4.2253,1.779 -8.2597,4.0879 -12.1061,6.924 -3.8464,2.836 -7.5088,5.9796 -10.9859,9.4292 -3.4771,3.4497 -6.6879,6.8939 -9.6338,10.3325 -2.2527,2.5355 -5.6158,7.1794 -10.0868,13.936 -4.471,6.7579 -8.6468,14.7938 -12.5289,24.1132 z m -34.6489,-36.7972 c -2.0907,1.8216 -3.9191,3.5045 -5.484,5.0475 -1.5663,1.5443 -3.1326,3.0433 -4.6989,4.4984 -1.5663,1.4537 -2.6219,1.9218 -3.1669,1.4002 -0.5436,-0.5203 0.0536,-1.5992 1.7942,-3.2355 3.4812,-3.2726 6.9199,-6.4999 10.3133,-9.6819 3.3947,-3.1806 6.6028,-5.6844 8.7456,-8.3132 l 5.9686,-7.3221 c 16.6072,-19.8414 33.3504,-39.2915 50.4408,-58.7183 1.9905,-2.2636 4.1195,-4.5753 6.3763,-6.9323 2.2581,-2.3569 4.4284,-4.5409 6.5191,-6.5341 1.9094,-1.8217 3.8807,-3.3262 5.8958,-4.5232 2.0166,-1.1997 4.1814,-1.8243 6.4889,-1.8737 1.7749,-0.0385 2.8525,0.4708 3.23,1.5278 -3.1298,3.0873 -6.4298,6.5767 -9.8959,10.4698 -3.4676,3.893 -6.7195,8.7085 -11.1699,13.1617 -3.6624,3.6624 -54.6537,65.586 -57.9167,70.2025 -3.1874,4.508 -5.7256,8.294 -7.6131,11.3538 -0.5134,0.8991 -1.2794,2.4242 -2.2979,4.5767 -1.02,2.1524 -1.7791,3.9466 -2.2815,5.3783 -1.1723,3.2204 -1.5951,6.2047 -1.2698,8.9502 0.3267,2.7454 2.1936,4.7908 5.598,6.1361 3.0502,1.3535 7.0627,2.0645 12.0374,2.1345 4.9762,0.0673 9.7683,-0.1262 14.3766,-0.5806 2.0234,-5.0173 4.1415,-9.6791 6.3557,-13.9908 2.2156,-4.309 4.4408,-8.176 6.6756,-11.5982 2.2334,-3.4236 4.2568,-6.353 6.0701,-8.7895 1.812,-2.4366 3.3262,-4.2898 4.541,-5.5596 3.1175,-3.6199 6.5479,-7.2466 10.2872,-10.8788 3.7393,-3.6336 7.7106,-6.8719 11.9112,-9.7162 4.2019,-2.8443 8.5918,-5.204 13.1699,-7.0791 4.578,-1.8765 9.2645,-2.8676 14.0581,-2.972 4.6164,-0.1016 8.3324,1.2382 11.1465,4.018 2.8141,2.7784 4.0907,6.3022 3.8285,10.57 -0.2732,3.7352 -1.3494,7.355 -3.2273,10.8582 -1.8765,3.5032 -4.2458,6.8389 -7.1079,10.0099 -2.8622,3.171 -6.0373,6.1691 -9.5295,8.9983 -3.4908,2.8278 -6.9858,5.4346 -10.4876,7.8204 -2.6288,1.6555 -5.9618,3.5485 -10.0017,5.6776 -4.0399,2.1318 -8.482,4.1374 -13.325,6.0194 -4.8444,1.882 -10.047,3.6377 -15.6079,5.2699 -5.5595,1.6294 -11.174,2.7742 -16.8447,3.4304 -2.5327,6.0921 -4.5671,12.5289 -6.1059,19.3101 -1.5402,6.7813 -2.1428,13.7204 -1.8092,20.8146 0.0315,1.4208 -0.2197,2.136 -0.7523,2.147 -0.1785,0.004 -0.3583,-0.1249 -0.5409,-0.3871 -0.1853,-0.2622 -0.2896,-1.0158 -0.3171,-2.2568 -0.3335,-7.0956 0.1826,-13.9867 1.5457,-20.676 1.3631,-6.6879 3.1381,-12.8981 5.3207,-18.6278 -5.3179,0.4722 -10.861,0.8154 -16.6305,1.0309 -5.7696,0.2155 -11.1548,-0.3336 -16.1584,-1.6446 -3.9301,-0.9787 -6.762,-2.5601 -8.4972,-4.7413 -1.7365,-2.1827 -2.5464,-4.6948 -2.4297,-7.539 0.0988,-3.5527 1.0364,-7.3908 2.8114,-11.5145 1.7749,-4.1223 5.0859,-9.0778 9.9344,-14.8652 l -0.2732,-0.2608 z" />
    <path
       id="path62"
       style="fill:#1b1918;fill-rule:evenodd"
       d="m 294.3958,384.1426 c -5.5859,0.4527 -11.1667,1.2336 -16.7373,2.3401 -5.5707,1.1091 -10.6377,2.8668 -15.1909,5.2705 -2.2816,1.0353 -3.7264,2.7116 -4.3344,5.0289 -1.3659,-2.2741 -0.6028,-4.922 2.2944,-7.949 2.8896,-3.3526 7.7709,-5.9268 14.6439,-7.7226 6.8756,-1.7958 15.0738,-3.1236 24.6024,-3.991 l 24.1624,-1.516 c 7.2393,-0.1578 15.1399,-0.2493 23.6943,-0.2722 8.5595,-0.0229 15.641,0.0687 21.2397,0.2747 3.6247,0.2493 6.0183,0.5291 7.1782,0.8318 1.1599,0.3027 1.7526,1.1141 1.7806,2.4266 0.0356,1.6458 -1.2617,2.4954 -3.8944,2.5539 -2.6327,0.056 -5.7589,0.1246 -9.3785,0.2035 l -45.898,1.0047 -24.1624,1.5161 z" />
  </g>
</svg>
